# AST/ASF file generated using VICON BodyLanguage
# -----------------------------------------------
:version 1.10
:name VICON
:units
  mass 1.0
  length 0.45
  angle deg
:documentation
   .ast/.asf automatically generated from VICON data using
   VICON BodyBuilder and BodyLanguage model FoxedUp or BRILLIANT.MOD
:root
   order TX TY TZ RX RY RZ
   axis XYZ
   position 0 0 0  
   orientation 0 0 0 
:bonedata
  begin
     id 1 
     name lhipjoint
     direction 0.578396 -0.714046 0.394458 
     length 2.21935 
     axis 0 0 0  XYZ
  end
  begin
     id 2 
     name lfemur
     direction 0.34202 -0.939693 0  
     length 6.39105  
     axis 0 0 20  XYZ
    dof rx ry rz
    limits (-160.0 20.0)
           (-70.0 70.0)
           (-60.0 70.0)
  end
  begin
     id 3 
     name ltibia
     direction 0.34202 -0.939693 0   
     length 6.99037   
     axis 0 0 20   XYZ
    dof rx
    limits (-10.0 170.0)
  end
  begin
     id 4 
     name lfoot
     direction 0.0582372 -0.160005 0.985397   
     length 2.06111   
     axis -90 7.62852e-016 20   XYZ
    dof rx rz
    limits (-45.0 90.0)
           (-70.0 20.0)
  end
  begin
     id 5 
     name ltoes
     direction 1.53556e-011 -4.21875e-011 1   
     length 1.04074   
     axis -90 7.62852e-016 20   XYZ
    dof rx
    limits (-90.0 20.0)
  end
  begin
     id 6 
     name rhipjoint
     direction -0.558179 -0.726269 0.40121   
     length 2.182  
     axis 0 0 0  XYZ 
  end
  begin
     id 7 
     name rfemur
     direction -0.34202 -0.939693 0   
     length 6.51172   
     axis 0 0 -20   XYZ
    dof rx ry rz
    limits (-160.0 20.0)
           (-70.0 70.0)
           (-70.0 60.0)
  end
  begin
     id 8 
     name rtibia
     direction -0.34202 -0.939693 0   
     length 7.02607   
     axis 0 0 -20   XYZ
    dof rx
    limits (-10.0 170.0)
 end
 begin
     id 9 
     name rfoot
     direction -0.0788856 -0.216737 0.973038   
     length 1.96734  
     axis -90 -7.62852e-016 -20   XYZ
    dof rx rz
    limits (-45.0 90.0)
           (-20.0 70.0)
  end
  begin
     id 10 
     name rtoes
     direction -1.53567e-011 -4.21783e-011 1   
     length 0.990825   
     axis -90 -7.62852e-016 -20   XYZ
    dof rx
    limits (-90.0 20.0)
  end
  begin
     id 11 
     name lowerback
     direction 0.00668177 0.999323 -0.0361741   
     length 1.7655   
     axis 0 0 0   XYZ
    dof rx ry rz
    limits (-20.0 45.0)
           (-30.0 30.0)
           (-30.0 30.0)
  end
  begin
     id 12 
     name upperback
     direction -0.00222086 0.99851 0.0545167   
     length 1.74912   
     axis 0 0 0   XYZ
    dof rx ry rz
    limits (-20.0 45.0)
           (-30.0 30.0)
           (-30.0 30.0)
  end
  begin
     id 13 
     name thorax
     direction -0.00733971 0.997496 0.0703443   
     length 1.75715   
     axis 0 0 0   XYZ
    dof rx ry rz
    limits (-20.0 45.0)
           (-30.0 30.0)
           (-30.0 30.0)
  end
  begin
     id 14 
     name lowerneck
     direction 0.0279797 0.994795 0.0979765   
     length 1.46939   
     axis 0 0 0   XYZ
    dof rx ry rz
    limits (-20.0 45.0)
           (-30.0 30.0)
           (-30.0 30.0)
  end
  begin
     id 15 
     name upperneck
     direction 0.00339187 0.976776 -0.214238   
     length 1.48018   
     axis 0 0 0   XYZ
    dof rx ry rz
    limits (-20.0 45.0)
           (-30.0 30.0)
           (-30.0 30.0)
  end
  begin
     id 16
     name head
     direction -0.00263506 0.996603 -0.0823096  
     length 1.4976  
     axis 0 0 0   XYZ
    dof rx ry rz
    limits (-20.0 45.0)
           (-30.0 30.0)
           (-30.0 30.0)
  end
  begin
     id 17 
     name lclavicle
     direction 0.894044 0.44508 -0.0508781  
     length 3.03024  
     axis 0 0 0   XYZ
    dof ry rz
    limits (-20.0 10.0)
           (0.0 20.0)
  end
  begin
     id 18 
     name lhumerus
     direction 1 -4.48961e-011 -2.39475e-018   
     length 4.4661   
     axis 180 -30 -90   XYZ
    dof rx ry rz
    limits (-60.0 90.0)
           (-90.0 90.0)
           (-90.0 90.0)
  end
  begin
     id 19
     name lradius
     direction 1 -4.48961e-011 9.29328e-028   
     length 3.41414   
     axis 180 -30 -90   XYZ
    dof rx
    limits (-10.0 170.0)
  end
  begin
     id 20
     name lwrist
     direction 1 -4.48985e-011 1.53461e-026   
     length 1.70707   
     axis -1.09697e-014 90 90   XYZ
    dof ry
    limits (-180.0 0.0)
 end
  begin
     id 21 
     name lhand
     direction 1 -4.48966e-011 3.06923e-026   
     length 0.328298   
     axis -1.95843e-014 90 90   XYZ
    dof rx rz
    limits (-90.0 90.0)
           (-45.0 45.0)
  end
  begin
     id 22 
     name lfingers
     direction 1 -4.48893e-011 6.13845e-026   
     length 0.264682   
     axis -3.91686e-014 90 90   XYZ
    dof rx
    limits (0.0 90.0)
  end
  begin
     id 23
     name lthumb
     direction 0.707107 -6.34876e-011 0.707107   
     length 0.380032   
     axis -90 45 2.85299e-015   XYZ
    dof rx rz
    limits (-45.0 45.0)
           (-45.0 45.0)
  end
  begin
     id 24 
     name rclavicle
     direction -0.936955 0.347862 -0.0332887   
     length 3.26927  
     axis 0 0 0   XYZ 
    dof ry rz
    limits (-10.0 20.0)
           (-20.0 0.0)
  end
  begin
     id 25 
     name rhumerus
     direction -1 -4.4896e-011 1.78637e-018  
     length 4.40431   
     axis 180 30 90   XYZ
    dof rx ry rz
    limits (-90.0 60.0)
           (-90.0 90.0)
           (-90.0 90.0)
  end
  begin
     id 26 
     name rradius
     direction -1 -4.48955e-011 9.34036e-027   
     length 3.04688   
     axis 180 30 90   XYZ
    dof rx
    limits (-10.0 170.0)
  end
  begin
     id 27 
     name rwrist
     direction -1 -4.49011e-011 1.53461e-026   
     length 1.52344   
     axis -1.09697e-014 -90 -90   XYZ
    dof ry
    limits (-180.0 0.0)
  end
  begin
     id 28
     name rhand
     direction -1 -4.48834e-011 3.06923e-026   
     length 0.500489   
     axis -1.95843e-014 -90 -90   XYZ
    dof rx rz
    limits (-90.0 90.0)
           (-45.0 45.0)
  end
  begin
     id 29
     name rfingers
     direction -1 -4.48967e-011 6.13845e-026   
     length 0.403507   
     axis -3.91686e-014 -90 -90   XYZ
    dof rx
    limits (0.0 90.0)
  end
  begin
     id 30
     name rthumb
     direction -0.707107 -6.34826e-011 0.707107   
     length 0.579358   
     axis -90 -45 -2.85299e-015   XYZ
    dof rx rz
    limits (-45.0 45.0)
           (-45.0 45.0)
  end
:hierarchy
  begin
    root lhipjoint rhipjoint lowerback
    lhipjoint lfemur
    lfemur ltibia
    ltibia lfoot
    lfoot ltoes
    rhipjoint rfemur
    rfemur rtibia
    rtibia rfoot
    rfoot rtoes
    lowerback upperback
    upperback thorax
    thorax lowerneck lclavicle rclavicle
    lowerneck upperneck
    upperneck head
    lclavicle lhumerus
    lhumerus lradius
    lradius lwrist
    lwrist lhand lthumb
    lhand lfingers
    rclavicle rhumerus
    rhumerus rradius
    rradius rwrist
    rwrist rhand rthumb
    rhand rfingers
  end

#!OML:ASF H:\IndianDance\Patient Classification 1\Patient 1\Session 1\dancer.ASF
:FULLY-SPECIFIED
:DEGREES
1277
root 3.16259 14.5904 12.7822 -174.829 -34.6085 -178.387
lowerback 15.2356 -1.693 -1.3763
upperback -0.945459 -2.24149 8.23995
thorax -9.24941 -0.97087 10.4749
lowerneck -14.4864 -9.79983 -6.84019
upperneck 10.7408 -16.3871 20.4537
head 8.13151 -6.9786 5.74893
rclavicle 4.77083e-015 3.65764e-014
rhumerus 4.58325 29.5691 -47.1794
rradius 88.3312
rwrist -11.2459
rhand -48.4542 42.6457
rfingers 7.12502
rthumb -21.1047 13.7742
lclavicle 4.77083e-015 3.65764e-014
lhumerus 54.6857 -58.2263 33.4895
lradius 96.9153
lwrist 29.9962
lhand -49.9629 -14.8056
lfingers 7.12502
lthumb -22.5535 373.897
rfemur -44.7865 -5.88816 21.6747
rtibia 73.707
rfoot -6.231 -12.0393
rtoes 10.4345
lfemur -47.6 16.6147 -12.8636
ltibia 76.5496
lfoot -8.64711 19.1431
ltoes 23.7944
1278
root 2.93683 14.6033 12.85 -173.783 -33.527 -179.69
lowerback 15.6615 -1.30657 -2.4798
upperback -0.736167 -1.91112 7.93195
thorax -9.2988 -0.747329 10.7212
lowerneck -14.4487 -9.69856 -6.9884
upperneck 10.9208 -16.3737 20.8323
head 8.23631 -6.95374 5.90606
rclavicle 3.89618e-014 -5.08889e-014
rhumerus 5.60758 31.1929 -48.4001
rradius 88.1681
rwrist -16.3244
rhand -46.653 37.7198
rfingers 7.12502
rthumb -19.3737 8.66494
lclavicle 3.89618e-014 -5.08889e-014
lhumerus 55.5783 -58.7999 33.9825
lradius 95.9178
lwrist 34.9868
lhand -47.0412 -8.24219
lfingers 7.12502
lthumb -19.7469 380.775
rfemur -46.3113 -5.76456 20.8036
rtibia 74.7288
rfoot -5.88462 -11.8591
rtoes 10.9673
lfemur -47.4559 16.1453 -13.3736
ltibia 73.8969
lfoot -7.19821 18.5705
ltoes 21.9015
1279
root 2.70356 14.5881 12.9133 -172.761 -32.3899 -180.933
lowerback 15.9681 -0.950456 -3.53738
upperback -0.579526 -1.62258 7.61847
thorax -9.33918 -0.547316 10.9369
lowerneck -14.4151 -9.58371 -7.10166
upperneck 11.2371 -16.3327 21.0345
head 8.3598 -6.91569 6.0054
rclavicle 2.46493e-014 3.81667e-014
rhumerus 6.55499 32.7262 -49.6262
rradius 88.0488
rwrist -21.8327
rhand -44.36 32.5704
rfingers 7.12502
rthumb -17.1678 3.30882
lclavicle 2.46493e-014 3.81667e-014
lhumerus 55.977 -59.2618 34.7442
lradius 94.8889
lwrist 39.8919
lhand -43.7356 -2.02851
lfingers 7.12502
lthumb -16.5667 387.284
rfemur -47.9361 -5.72006 20.1616
rtibia 75.6234
rfoot -6.15289 -10.7537
rtoes 9.929
lfemur -47.2678 15.7492 -13.9295
ltibia 71.4696
lfoot -5.696 17.4382
ltoes 19.4281
1280
root 2.46411 14.5699 12.9713 -171.797 -31.2338 -182.069
lowerback 16.1487 -0.636801 -4.47901
upperback -0.474669 -1.37486 7.30781
thorax -9.3653 -0.374103 11.0893
lowerneck -14.4052 -9.46668 -7.20001
upperneck 11.6911 -16.2807 21.0815
head 8.51276 -6.87079 6.0533
rclavicle 2.22639e-014 -3.18055e-014
rhumerus 7.37483 34.1295 -50.8684
rradius 87.9856
rwrist -27.7098
rhand -41.5808 27.3824
rfingers 7.12502
rthumb -14.4913 -2.09152
lclavicle 2.22639e-014 -3.18055e-014
lhumerus 55.9169 -59.6274 35.7891
lradius 93.7887
lwrist 44.6882
lhand -40.046 3.60173
lfingers 7.12502
lthumb -13.0121 393.176
rfemur -49.4796 -5.78507 19.8199
rtibia 76.2115
rfoot -6.94542 -8.70464
rtoes 7.19937
lfemur -46.9184 15.4109 -14.5184
ltibia 69.2038
lfoot -4.56681 15.999
ltoes 16.3476
1281
root 2.21717 14.5344 13.0243 -170.926 -30.1011 -183.033
lowerback 16.2111 -0.380708 -5.22767
upperback -0.421815 -1.16956 7.02249
thorax -9.37988 -0.232152 11.1595
lowerneck -14.4372 -9.34991 -7.30343
upperneck 12.2807 -16.2218 20.9968
head 8.70355 -6.82013 6.05941
rclavicle 4.01545e-014 -1.06549e-013
rhumerus 8.03334 35.3805 -52.1599
rradius 87.9537
rwrist -33.8406
rhand -38.4047 22.2955
rfingers 7.12502
rthumb -11.4296 -7.37292
lclavicle 4.01545e-014 -1.06549e-013
lhumerus 55.4515 -59.8957 37.0593
lradius 92.6401
lwrist 49.4379
lhand -35.9951 8.49047
lfingers 7.12502
lthumb -9.10506 398.274
rfemur -50.9825 -5.98835 19.8565
rtibia 76.5488
rfoot -8.1618 -5.80523
rtoes 2.94384
lfemur -46.5287 15.1314 -15.0871
ltibia 67.2738
lfoot -4.00165 14.4659
ltoes 12.837
1282
root 1.96346 14.4831 13.0722 -170.173 -29.021 -183.791
lowerback 16.1644 -0.19211 -5.7327
upperback -0.412262 -1.00757 6.77031
thorax -9.3761 -0.124947 11.1265
lowerneck -14.519 -9.23221 -7.42317
upperneck 12.9856 -16.1551 20.8128
head 8.9323 -6.76411 6.03605
rclavicle -8.74653e-015 -7.4743e-014
rhumerus 8.51494 36.5003 -53.4573
rradius 87.981
rwrist -40.2078
rhand -34.9553 17.3491
rfingers 7.12502
rthumb -8.10165 -12.4757
lclavicle -8.74653e-015 -7.4743e-014
lhumerus 54.6429 -60.0668 38.49
lradius 91.4677
lwrist 54.2516
lhand -31.6535 12.5752
lfingers 7.12502
lthumb -4.91415 402.498
rfemur -52.3787 -6.31844 20.3058
rtibia 76.6046
rfoot -9.63386 -2.29952
rtoes -2.0227
lfemur -46.1168 14.9264 -15.6121
ltibia 65.7544
lfoot -4.06179 13.0306
ltoes 8.83396
1283
root 1.70403 14.4172 13.1157 -169.543 -28.0337 -184.325
lowerback 16.0266 -0.0681834 -5.9624
upperback -0.445008 -0.877497 6.56211
thorax -9.36356 -0.0476379 10.9831
lowerneck -14.6379 -9.12187 -7.56841
upperneck 13.7535 -16.0895 20.5721
head 9.18713 -6.70969 5.9976
rclavicle -8.34896e-015 -3.02153e-014
rhumerus 8.79047 37.4499 -54.7758
rradius 88.0392
rwrist -46.7715
rhand -31.3634 12.6043
rfingers 7.12502
rthumb -4.63403 -17.325
lclavicle -8.34896e-015 -3.02153e-014
lhumerus 53.6477 -60.1561 39.9306
lradius 90.3217
lwrist 59.2512
lhand -27.2017 15.8763
lfingers 7.12502
lthumb -0.614858 405.855
rfemur -53.6329 -6.77473 21.1893
rtibia 76.4132
rfoot -11.1403 1.57394
rtoes -6.76465
lfemur -45.7545 14.8163 -16.0848
ltibia 64.7691
lfoot -4.76384 11.8094
ltoes 4.28348
1284
root 1.44122 14.339 13.1554 -169.048 -27.158 -184.609
lowerback 15.8194 -0.0123602 -5.90501
upperback -0.51459 -0.782629 6.41308
thorax -9.34598 -0.00224197 10.7425
lowerneck -14.7741 -9.00892 -7.73601
upperneck 14.5492 -16.0084 20.2947
head 9.45257 -6.65214 5.9534
rclavicle -8.42847e-014 -5.40694e-014
rhumerus 8.87942 38.2501 -56.102
rradius 88.1209
rwrist -53.5461
rhand -27.8877 8.18161
rfingers 7.12502
rthumb -1.27744 -21.7943
lclavicle -8.42847e-014 -5.40694e-014
lhumerus 52.5115 -60.1688 41.3232
lradius 89.2477
lwrist 64.4733
lhand -22.9685 18.5023
lfingers 7.12502
lthumb 3.4735 408.454
rfemur -54.6945 -7.29494 22.4796
rtibia 76.0124
rfoot -12.5699 5.04857
rtoes -11.1765
lfemur -45.4903 14.8572 -16.4824
ltibia 64.3702
lfoot -6.07579 10.7707
ltoes -0.820617
1285
root 1.17779 14.2508 13.1925 -168.691 -26.3999 -184.643
lowerback 15.5749 -0.0111414 -5.59345
upperback -0.615023 -0.713432 6.33663
thorax -9.33601 0.0181401 10.4404
lowerneck -14.8963 -8.8939 -7.9386
upperneck 15.3165 -15.9073 20.0195
head 9.70822 -6.59284 5.92
rclavicle -2.98177e-014 7.95139e-015
rhumerus 8.79922 38.8999 -57.4198
rradius 88.2178
rwrist -60.5432
rhand -24.7419 4.16425
rfingers 7.12502
rthumb 1.76086 -25.8082
lclavicle -2.98177e-014 7.95139e-015
lhumerus 51.298 -60.1234 42.6253
lradius 88.2945
lwrist 69.8204
lhand -19.2458 20.6314
lfingers 7.12502
lthumb 7.06786 410.493
rfemur -55.5113 -7.82188 24.0932
rtibia 75.4628
rfoot -13.5093 7.80625
rtoes -13.0735
lfemur -45.3798 15.112 -16.803
ltibia 64.5653
lfoot -7.83322 9.83756
ltoes -6.37213
1286
root 0.91716 14.1578 13.2279 -168.458 -25.7578 -184.468
lowerback 15.312 -0.0578631 -5.06629
upperback -0.730441 -0.671693 6.31238
thorax -9.32593 0.0131666 10.077
lowerneck -15.0062 -8.77619 -8.14935
upperneck 16.0258 -15.7913 19.7666
head 9.94488 -6.53291 5.89842
rclavicle -2.82274e-014 -1.74931e-013
rhumerus 8.57226 39.3766 -58.7641
rradius 88.3028
rwrist -67.6272
rhand -22.1307 0.603941
rfingers 7.12502
rthumb 4.28252 -29.3328
lclavicle -2.82274e-014 -1.74931e-013
lhumerus 50.1079 -60.0407 43.7192
lradius 87.5124
lwrist 75.0425
lhand -16.3062 22.3261
lfingers 7.12502
lthumb 9.90472 412.073
rfemur -56.0355 -8.27212 25.859
rtibia 74.8265
rfoot -14.2108 9.42429
rtoes -12.5883
lfemur -45.4543 15.6324 -17.0679
ltibia 65.304
lfoot -9.81081 8.88661
ltoes -11.9244
1287
root 0.663041 14.0655 13.2623 -168.345 -25.2234 -184.118
lowerback 15.0687 -0.134682 -4.38056
upperback -0.850207 -0.646968 6.33333
thorax -9.32801 -0.00918312 9.67798
lowerneck -15.096 -8.66481 -8.37108
upperneck 16.6473 -15.6734 19.5611
head 10.1551 -6.47776 5.89533
rclavicle -3.49861e-014 9.70069e-014
rhumerus 8.21758 39.6618 -60.1347
rradius 88.3446
rwrist -74.5583
rhand -20.1127 -2.36614
rfingers 7.12502
rthumb 6.23103 -32.2545
lclavicle -3.49861e-014 9.70069e-014
lhumerus 49.0137 -59.9484 44.5518
lradius 86.9331
lwrist 79.7107
lhand -14.1688 23.5825
lfingers 7.12502
lthumb 11.9663 413.22
rfemur -56.2462 -8.55344 27.6028
rtibia 74.1479
rfoot -14.9419 9.67131
rtoes -10.0584
lfemur -45.7312 16.452 -17.2741
ltibia 66.5124
lfoot -11.7518 7.73262
ltoes -17.0163
1288
root 0.418327 13.9793 13.2961 -168.331 -24.7805 -183.697
lowerback 14.8824 -0.230379 -3.64493
upperback -0.958853 -0.644823 6.36728
thorax -9.34568 -0.0462013 9.27366
lowerneck -15.1727 -8.56132 -8.57469
upperneck 17.1646 -15.5588 19.4027
head 10.3319 -6.4273 5.90396
rclavicle 1.82882e-014 1.59028e-014
rhumerus 7.77645 39.7667 -61.5471
rradius 88.3048
rwrist -80.9644
rhand -18.6422 -4.71099
rfingers 7.12502
rthumb 7.65047 -34.5526
lclavicle 1.82882e-014 1.59028e-014
lhumerus 48.0636 -59.8718 45.0839
lradius 86.5733
lwrist 83.3653
lhand -12.6242 24.3601
lfingers 7.12502
lthumb 13.4554 413.905
rfemur -56.1297 -8.6258 29.0847
rtibia 73.4784
rfoot -15.8692 8.6451
rtoes -5.72885
lfemur -46.1936 17.5513 -17.4665
ltibia 68.0936
lfoot -13.3893 6.20589
ltoes -21.1968
